<svg width="600" height="500" viewBox="0 0 600 500" fill="none" xmlns="http://www.w3.org/2000/svg">
<rect width="600" height="500" fill="white"/>
<path d="M317.5 38C317.5 44.6121 312.127 50.7329 303.132 55.2305C294.167 59.713 281.746 62.5 268 62.5C254.254 62.5 241.833 59.713 232.868 55.2305C223.873 50.7329 218.5 44.6121 218.5 38C218.5 31.3879 223.873 25.2671 232.868 20.7695C241.833 16.287 254.254 13.5 268 13.5C281.746 13.5 294.167 16.287 303.132 20.7695C312.127 25.2671 317.5 31.3879 317.5 38Z" fill="white" stroke="black"/>
<path d="M262.533 42H261.402L257.107 35.4258V42H255.977V33.4688H257.107L261.414 40.0723V33.4688H262.533V42ZM269.354 38.0566H265.656V41.0801H269.951V42H264.531V33.4688H269.893V34.3945H265.656V37.1367H269.354V38.0566ZM273.191 39.3105L273.355 40.4355L273.596 39.4219L275.283 33.4688H276.232L277.879 39.4219L278.113 40.4531L278.295 39.3047L279.619 33.4688H280.75L278.682 42H277.656L275.898 35.7832L275.764 35.1328L275.629 35.7832L273.807 42H272.781L270.719 33.4688H271.844L273.191 39.3105Z" fill="black"/>
<path d="M99.5 197C99.5 203.612 94.1268 209.733 85.1317 214.23C76.1666 218.713 63.7463 221.5 50 221.5C36.2537 221.5 23.8334 218.713 14.8683 214.23C5.8732 209.733 0.5 203.612 0.5 197C0.5 190.388 5.8732 184.267 14.8683 179.77C23.8334 175.287 36.2537 172.5 50 172.5C63.7463 172.5 76.1666 175.287 85.1317 179.77C94.1268 184.267 99.5 190.388 99.5 197Z" fill="white" stroke="black"/>
<path d="M25.6309 201V192.469H28.0391C28.7812 192.469 29.4375 192.633 30.0078 192.961C30.5781 193.289 31.0176 193.756 31.3262 194.361C31.6387 194.967 31.7969 195.662 31.8008 196.447V196.992C31.8008 197.797 31.6445 198.502 31.332 199.107C31.0234 199.713 30.5801 200.178 30.002 200.502C29.4277 200.826 28.7578 200.992 27.9922 201H25.6309ZM26.7559 193.395V200.08H27.9395C28.8066 200.08 29.4805 199.811 29.9609 199.271C30.4453 198.732 30.6875 197.965 30.6875 196.969V196.471C30.6875 195.502 30.459 194.75 30.002 194.215C29.5488 193.676 28.9043 193.402 28.0684 193.395H26.7559ZM35.9668 201.117C35.1074 201.117 34.4082 200.836 33.8691 200.273C33.3301 199.707 33.0605 198.951 33.0605 198.006V197.807C33.0605 197.178 33.1797 196.617 33.418 196.125C33.6602 195.629 33.9961 195.242 34.4258 194.965C34.8594 194.684 35.3281 194.543 35.832 194.543C36.6562 194.543 37.2969 194.814 37.7539 195.357C38.2109 195.9 38.4395 196.678 38.4395 197.689V198.141H34.1445C34.1602 198.766 34.3418 199.271 34.6895 199.658C35.041 200.041 35.4863 200.232 36.0254 200.232C36.4082 200.232 36.7324 200.154 36.998 199.998C37.2637 199.842 37.4961 199.635 37.6953 199.377L38.3574 199.893C37.8262 200.709 37.0293 201.117 35.9668 201.117ZM35.832 195.434C35.3945 195.434 35.0273 195.594 34.7305 195.914C34.4336 196.23 34.25 196.676 34.1797 197.25H37.3555V197.168C37.3242 196.617 37.1758 196.191 36.9102 195.891C36.6445 195.586 36.2852 195.434 35.832 195.434ZM41.1699 193.125V194.66H42.3535V195.498H41.1699V199.43C41.1699 199.684 41.2227 199.875 41.3281 200.004C41.4336 200.129 41.6133 200.191 41.8672 200.191C41.9922 200.191 42.1641 200.168 42.3828 200.121V201C42.0977 201.078 41.8203 201.117 41.5508 201.117C41.0664 201.117 40.7012 200.971 40.4551 200.678C40.209 200.385 40.0859 199.969 40.0859 199.43V195.498H38.9316V194.66H40.0859V193.125H41.1699ZM47.5391 201C47.4766 200.875 47.4258 200.652 47.3867 200.332C46.8828 200.855 46.2812 201.117 45.582 201.117C44.957 201.117 44.4434 200.941 44.041 200.59C43.6426 200.234 43.4434 199.785 43.4434 199.242C43.4434 198.582 43.6934 198.07 44.1934 197.707C44.6973 197.34 45.4043 197.156 46.3145 197.156H47.3691V196.658C47.3691 196.279 47.2559 195.979 47.0293 195.756C46.8027 195.529 46.4688 195.416 46.0273 195.416C45.6406 195.416 45.3164 195.514 45.0547 195.709C44.793 195.904 44.6621 196.141 44.6621 196.418H43.5723C43.5723 196.102 43.6836 195.797 43.9062 195.504C44.1328 195.207 44.4375 194.973 44.8203 194.801C45.207 194.629 45.6309 194.543 46.0918 194.543C46.8223 194.543 47.3945 194.727 47.8086 195.094C48.2227 195.457 48.4375 195.959 48.4531 196.6V199.518C48.4531 200.1 48.5273 200.562 48.6758 200.906V201H47.5391ZM45.7402 200.174C46.0801 200.174 46.4023 200.086 46.707 199.91C47.0117 199.734 47.2324 199.506 47.3691 199.225V197.924H46.5195C45.1914 197.924 44.5273 198.312 44.5273 199.09C44.5273 199.43 44.6406 199.695 44.8672 199.887C45.0938 200.078 45.3848 200.174 45.7402 200.174ZM52.6953 200.232C53.082 200.232 53.4199 200.115 53.709 199.881C53.998 199.646 54.1582 199.354 54.1895 199.002H55.2148C55.1953 199.365 55.0703 199.711 54.8398 200.039C54.6094 200.367 54.3008 200.629 53.9141 200.824C53.5312 201.02 53.125 201.117 52.6953 201.117C51.832 201.117 51.1445 200.83 50.6328 200.256C50.125 199.678 49.8711 198.889 49.8711 197.889V197.707C49.8711 197.09 49.9844 196.541 50.2109 196.061C50.4375 195.58 50.7617 195.207 51.1836 194.941C51.6094 194.676 52.1113 194.543 52.6895 194.543C53.4004 194.543 53.9902 194.756 54.459 195.182C54.9316 195.607 55.1836 196.16 55.2148 196.84H54.1895C54.1582 196.43 54.002 196.094 53.7207 195.832C53.4434 195.566 53.0996 195.434 52.6895 195.434C52.1387 195.434 51.7109 195.633 51.4062 196.031C51.1055 196.426 50.9551 196.998 50.9551 197.748V197.953C50.9551 198.684 51.1055 199.246 51.4062 199.641C51.707 200.035 52.1367 200.232 52.6953 200.232ZM57.5176 195.428C57.998 194.838 58.623 194.543 59.3926 194.543C60.7324 194.543 61.4082 195.299 61.4199 196.811V201H60.3359V196.805C60.332 196.348 60.2266 196.01 60.0195 195.791C59.8164 195.572 59.498 195.463 59.0645 195.463C58.7129 195.463 58.4043 195.557 58.1387 195.744C57.873 195.932 57.666 196.178 57.5176 196.482V201H56.4336V192H57.5176V195.428ZM65.6738 201.117C64.8145 201.117 64.1152 200.836 63.5762 200.273C63.0371 199.707 62.7676 198.951 62.7676 198.006V197.807C62.7676 197.178 62.8867 196.617 63.125 196.125C63.3672 195.629 63.7031 195.242 64.1328 194.965C64.5664 194.684 65.0352 194.543 65.5391 194.543C66.3633 194.543 67.0039 194.814 67.4609 195.357C67.918 195.9 68.1465 196.678 68.1465 197.689V198.141H63.8516C63.8672 198.766 64.0488 199.271 64.3965 199.658C64.748 200.041 65.1934 200.232 65.7324 200.232C66.1152 200.232 66.4395 200.154 66.7051 199.998C66.9707 199.842 67.2031 199.635 67.4023 199.377L68.0645 199.893C67.5332 200.709 66.7363 201.117 65.6738 201.117ZM65.5391 195.434C65.1016 195.434 64.7344 195.594 64.4375 195.914C64.1406 196.23 63.957 196.676 63.8867 197.25H67.0625V197.168C67.0312 196.617 66.8828 196.191 66.6172 195.891C66.3516 195.586 65.9922 195.434 65.5391 195.434ZM69.1426 197.777C69.1426 196.805 69.373 196.023 69.834 195.434C70.2949 194.84 70.8984 194.543 71.6445 194.543C72.3867 194.543 72.9746 194.797 73.4082 195.305V192H74.4922V201H73.4961L73.4434 200.32C73.0098 200.852 72.4062 201.117 71.6328 201.117C70.8984 201.117 70.2988 200.816 69.834 200.215C69.373 199.613 69.1426 198.828 69.1426 197.859V197.777ZM70.2266 197.9C70.2266 198.619 70.375 199.182 70.6719 199.588C70.9688 199.994 71.3789 200.197 71.9023 200.197C72.5898 200.197 73.0918 199.889 73.4082 199.271V196.359C73.084 195.762 72.5859 195.463 71.9141 195.463C71.3828 195.463 70.9688 195.668 70.6719 196.078C70.375 196.488 70.2266 197.096 70.2266 197.9Z" fill="black"/>
<path d="M317.5 361C317.5 367.612 312.127 373.733 303.132 378.23C294.167 382.713 281.746 385.5 268 385.5C254.254 385.5 241.833 382.713 232.868 378.23C223.873 373.733 218.5 367.612 218.5 361C218.5 354.388 223.873 348.267 232.868 343.77C241.833 339.287 254.254 336.5 268 336.5C281.746 336.5 294.167 339.287 303.132 343.77C312.127 348.267 317.5 354.388 317.5 361Z" fill="white" stroke="black"/>
<path d="M247.17 361.549H245.166V365H244.035V356.469H246.859C247.82 356.469 248.559 356.688 249.074 357.125C249.594 357.562 249.854 358.199 249.854 359.035C249.854 359.566 249.709 360.029 249.42 360.424C249.135 360.818 248.736 361.113 248.225 361.309L250.229 364.93V365H249.021L247.17 361.549ZM245.166 360.629H246.895C247.453 360.629 247.896 360.484 248.225 360.195C248.557 359.906 248.723 359.52 248.723 359.035C248.723 358.508 248.564 358.104 248.248 357.822C247.936 357.541 247.482 357.398 246.889 357.395H245.166V360.629ZM253.896 365.117C253.037 365.117 252.338 364.836 251.799 364.273C251.26 363.707 250.99 362.951 250.99 362.006V361.807C250.99 361.178 251.109 360.617 251.348 360.125C251.59 359.629 251.926 359.242 252.355 358.965C252.789 358.684 253.258 358.543 253.762 358.543C254.586 358.543 255.227 358.814 255.684 359.357C256.141 359.9 256.369 360.678 256.369 361.689V362.141H252.074C252.09 362.766 252.271 363.271 252.619 363.658C252.971 364.041 253.416 364.232 253.955 364.232C254.338 364.232 254.662 364.154 254.928 363.998C255.193 363.842 255.426 363.635 255.625 363.377L256.287 363.893C255.756 364.709 254.959 365.117 253.896 365.117ZM253.762 359.434C253.324 359.434 252.957 359.594 252.66 359.914C252.363 360.23 252.18 360.676 252.109 361.25H255.285V361.168C255.254 360.617 255.105 360.191 254.84 359.891C254.574 359.586 254.215 359.434 253.762 359.434ZM258.648 358.66L258.678 359.363C259.143 358.816 259.77 358.543 260.559 358.543C261.445 358.543 262.049 358.883 262.369 359.562C262.58 359.258 262.854 359.012 263.189 358.824C263.529 358.637 263.93 358.543 264.391 358.543C265.781 358.543 266.488 359.279 266.512 360.752V365H265.428V360.816C265.428 360.363 265.324 360.025 265.117 359.803C264.91 359.576 264.562 359.463 264.074 359.463C263.672 359.463 263.338 359.584 263.072 359.826C262.807 360.064 262.652 360.387 262.609 360.793V365H261.52V360.846C261.52 359.924 261.068 359.463 260.166 359.463C259.455 359.463 258.969 359.766 258.707 360.371V365H257.623V358.66H258.648ZM267.865 361.771C267.865 361.15 267.986 360.592 268.229 360.096C268.475 359.6 268.814 359.217 269.248 358.947C269.686 358.678 270.184 358.543 270.742 358.543C271.605 358.543 272.303 358.842 272.834 359.439C273.369 360.037 273.637 360.832 273.637 361.824V361.9C273.637 362.518 273.518 363.072 273.279 363.564C273.045 364.053 272.707 364.434 272.266 364.707C271.828 364.98 271.324 365.117 270.754 365.117C269.895 365.117 269.197 364.818 268.662 364.221C268.131 363.623 267.865 362.832 267.865 361.848V361.771ZM268.955 361.9C268.955 362.604 269.117 363.168 269.441 363.594C269.77 364.02 270.207 364.232 270.754 364.232C271.305 364.232 271.742 364.018 272.066 363.588C272.391 363.154 272.553 362.549 272.553 361.771C272.553 361.076 272.387 360.514 272.055 360.084C271.727 359.65 271.289 359.434 270.742 359.434C270.207 359.434 269.775 359.646 269.447 360.072C269.119 360.498 268.955 361.107 268.955 361.9ZM276.994 363.529L278.564 358.66H279.672L277.398 365H276.572L274.275 358.66H275.383L276.994 363.529ZM283.264 365.117C282.404 365.117 281.705 364.836 281.166 364.273C280.627 363.707 280.357 362.951 280.357 362.006V361.807C280.357 361.178 280.477 360.617 280.715 360.125C280.957 359.629 281.293 359.242 281.723 358.965C282.156 358.684 282.625 358.543 283.129 358.543C283.953 358.543 284.594 358.814 285.051 359.357C285.508 359.9 285.736 360.678 285.736 361.689V362.141H281.441C281.457 362.766 281.639 363.271 281.986 363.658C282.338 364.041 282.783 364.232 283.322 364.232C283.705 364.232 284.029 364.154 284.295 363.998C284.561 363.842 284.793 363.635 284.992 363.377L285.654 363.893C285.123 364.709 284.326 365.117 283.264 365.117ZM283.129 359.434C282.691 359.434 282.324 359.594 282.027 359.914C281.73 360.23 281.547 360.676 281.477 361.25H284.652V361.168C284.621 360.617 284.473 360.191 284.207 359.891C283.941 359.586 283.582 359.434 283.129 359.434ZM286.732 361.777C286.732 360.805 286.963 360.023 287.424 359.434C287.885 358.84 288.488 358.543 289.234 358.543C289.977 358.543 290.564 358.797 290.998 359.305V356H292.082V365H291.086L291.033 364.32C290.6 364.852 289.996 365.117 289.223 365.117C288.488 365.117 287.889 364.816 287.424 364.215C286.963 363.613 286.732 362.828 286.732 361.859V361.777ZM287.816 361.9C287.816 362.619 287.965 363.182 288.262 363.588C288.559 363.994 288.969 364.197 289.492 364.197C290.18 364.197 290.682 363.889 290.998 363.271V360.359C290.674 359.762 290.176 359.463 289.504 359.463C288.973 359.463 288.559 359.668 288.262 360.078C287.965 360.488 287.816 361.096 287.816 361.9Z" fill="black"/>
<path d="M317.5 197C317.5 203.612 312.127 209.733 303.132 214.23C294.167 218.713 281.746 221.5 268 221.5C254.254 221.5 241.833 218.713 232.868 214.23C223.873 209.733 218.5 203.612 218.5 197C218.5 190.388 223.873 184.267 232.868 179.77C241.833 175.287 254.254 172.5 268 172.5C281.746 172.5 294.167 175.287 303.132 179.77C312.127 184.267 317.5 190.388 317.5 197Z" fill="white" stroke="black"/>
<path d="M245.43 192.469L248.219 199.43L251.008 192.469H252.467V201H251.342V197.678L251.447 194.092L248.646 201H247.785L244.99 194.109L245.102 197.678V201H243.977V192.469H245.43ZM258.197 201C258.135 200.875 258.084 200.652 258.045 200.332C257.541 200.855 256.939 201.117 256.24 201.117C255.615 201.117 255.102 200.941 254.699 200.59C254.301 200.234 254.102 199.785 254.102 199.242C254.102 198.582 254.352 198.07 254.852 197.707C255.355 197.34 256.062 197.156 256.973 197.156H258.027V196.658C258.027 196.279 257.914 195.979 257.688 195.756C257.461 195.529 257.127 195.416 256.686 195.416C256.299 195.416 255.975 195.514 255.713 195.709C255.451 195.904 255.32 196.141 255.32 196.418H254.23C254.23 196.102 254.342 195.797 254.564 195.504C254.791 195.207 255.096 194.973 255.479 194.801C255.865 194.629 256.289 194.543 256.75 194.543C257.48 194.543 258.053 194.727 258.467 195.094C258.881 195.457 259.096 195.959 259.111 196.6V199.518C259.111 200.1 259.186 200.562 259.334 200.906V201H258.197ZM256.398 200.174C256.738 200.174 257.061 200.086 257.365 199.91C257.67 199.734 257.891 199.506 258.027 199.225V197.924H257.178C255.85 197.924 255.186 198.312 255.186 199.09C255.186 199.43 255.299 199.695 255.525 199.887C255.752 200.078 256.043 200.174 256.398 200.174ZM261.836 194.66L261.871 195.457C262.355 194.848 262.988 194.543 263.77 194.543C265.109 194.543 265.785 195.299 265.797 196.811V201H264.713V196.805C264.709 196.348 264.604 196.01 264.396 195.791C264.193 195.572 263.875 195.463 263.441 195.463C263.09 195.463 262.781 195.557 262.516 195.744C262.25 195.932 262.043 196.178 261.895 196.482V201H260.811V194.66H261.836ZM271.346 201C271.283 200.875 271.232 200.652 271.193 200.332C270.689 200.855 270.088 201.117 269.389 201.117C268.764 201.117 268.25 200.941 267.848 200.59C267.449 200.234 267.25 199.785 267.25 199.242C267.25 198.582 267.5 198.07 268 197.707C268.504 197.34 269.211 197.156 270.121 197.156H271.176V196.658C271.176 196.279 271.062 195.979 270.836 195.756C270.609 195.529 270.275 195.416 269.834 195.416C269.447 195.416 269.123 195.514 268.861 195.709C268.6 195.904 268.469 196.141 268.469 196.418H267.379C267.379 196.102 267.49 195.797 267.713 195.504C267.939 195.207 268.244 194.973 268.627 194.801C269.014 194.629 269.438 194.543 269.898 194.543C270.629 194.543 271.201 194.727 271.615 195.094C272.029 195.457 272.244 195.959 272.26 196.6V199.518C272.26 200.1 272.334 200.562 272.482 200.906V201H271.346ZM269.547 200.174C269.887 200.174 270.209 200.086 270.514 199.91C270.818 199.734 271.039 199.506 271.176 199.225V197.924H270.326C268.998 197.924 268.334 198.312 268.334 199.09C268.334 199.43 268.447 199.695 268.674 199.887C268.9 200.078 269.191 200.174 269.547 200.174ZM273.701 197.777C273.701 196.789 273.93 196.004 274.387 195.422C274.844 194.836 275.449 194.543 276.203 194.543C276.977 194.543 277.58 194.816 278.014 195.363L278.066 194.66H279.057V200.848C279.057 201.668 278.812 202.314 278.324 202.787C277.84 203.26 277.188 203.496 276.367 203.496C275.91 203.496 275.463 203.398 275.025 203.203C274.588 203.008 274.254 202.74 274.023 202.4L274.586 201.75C275.051 202.324 275.619 202.611 276.291 202.611C276.818 202.611 277.229 202.463 277.521 202.166C277.818 201.869 277.967 201.451 277.967 200.912V200.367C277.533 200.867 276.941 201.117 276.191 201.117C275.449 201.117 274.848 200.818 274.387 200.221C273.93 199.623 273.701 198.809 273.701 197.777ZM274.791 197.9C274.791 198.615 274.938 199.178 275.23 199.588C275.523 199.994 275.934 200.197 276.461 200.197C277.145 200.197 277.646 199.887 277.967 199.266V196.371C277.635 195.766 277.137 195.463 276.473 195.463C275.945 195.463 275.533 195.668 275.236 196.078C274.939 196.488 274.791 197.096 274.791 197.9ZM283.328 201.117C282.469 201.117 281.77 200.836 281.23 200.273C280.691 199.707 280.422 198.951 280.422 198.006V197.807C280.422 197.178 280.541 196.617 280.779 196.125C281.021 195.629 281.357 195.242 281.787 194.965C282.221 194.684 282.689 194.543 283.193 194.543C284.018 194.543 284.658 194.814 285.115 195.357C285.572 195.9 285.801 196.678 285.801 197.689V198.141H281.506C281.521 198.766 281.703 199.271 282.051 199.658C282.402 200.041 282.848 200.232 283.387 200.232C283.77 200.232 284.094 200.154 284.359 199.998C284.625 199.842 284.857 199.635 285.057 199.377L285.719 199.893C285.188 200.709 284.391 201.117 283.328 201.117ZM283.193 195.434C282.756 195.434 282.389 195.594 282.092 195.914C281.795 196.23 281.611 196.676 281.541 197.25H284.717V197.168C284.686 196.617 284.537 196.191 284.271 195.891C284.006 195.586 283.646 195.434 283.193 195.434ZM286.797 197.777C286.797 196.805 287.027 196.023 287.488 195.434C287.949 194.84 288.553 194.543 289.299 194.543C290.041 194.543 290.629 194.797 291.062 195.305V192H292.146V201H291.15L291.098 200.32C290.664 200.852 290.061 201.117 289.287 201.117C288.553 201.117 287.953 200.816 287.488 200.215C287.027 199.613 286.797 198.828 286.797 197.859V197.777ZM287.881 197.9C287.881 198.619 288.029 199.182 288.326 199.588C288.623 199.994 289.033 200.197 289.557 200.197C290.244 200.197 290.746 199.889 291.062 199.271V196.359C290.738 195.762 290.24 195.463 289.568 195.463C289.037 195.463 288.623 195.668 288.326 196.078C288.029 196.488 287.881 197.096 287.881 197.9Z" fill="black"/>
<rect x="443.5" y="152.5" width="149" height="249" rx="4.5" fill="#E5E5E5" stroke="black"/>
<path d="M511.814 281V272.469H514.223C514.965 272.469 515.621 272.633 516.191 272.961C516.762 273.289 517.201 273.756 517.51 274.361C517.822 274.967 517.98 275.662 517.984 276.447V276.992C517.984 277.797 517.828 278.502 517.516 279.107C517.207 279.713 516.764 280.178 516.186 280.502C515.611 280.826 514.941 280.992 514.176 281H511.814ZM512.939 273.395V280.08H514.123C514.99 280.08 515.664 279.811 516.145 279.271C516.629 278.732 516.871 277.965 516.871 276.969V276.471C516.871 275.502 516.643 274.75 516.186 274.215C515.732 273.676 515.088 273.402 514.252 273.395H512.939ZM519.689 281V272.469H522.479C523.404 272.469 524.1 272.66 524.564 273.043C525.033 273.426 525.268 273.992 525.268 274.742C525.268 275.141 525.154 275.494 524.928 275.803C524.701 276.107 524.393 276.344 524.002 276.512C524.463 276.641 524.826 276.887 525.092 277.25C525.361 277.609 525.496 278.039 525.496 278.539C525.496 279.305 525.248 279.906 524.752 280.344C524.256 280.781 523.555 281 522.648 281H519.689ZM520.814 277.01V280.08H522.672C523.195 280.08 523.607 279.945 523.908 279.676C524.213 279.402 524.365 279.027 524.365 278.551C524.365 277.523 523.807 277.01 522.689 277.01H520.814ZM520.814 276.107H522.514C523.006 276.107 523.398 275.984 523.691 275.738C523.988 275.492 524.137 275.158 524.137 274.736C524.137 274.268 524 273.928 523.727 273.717C523.453 273.502 523.037 273.395 522.479 273.395H520.814V276.107Z" fill="black"/>
<path d="M282 167L290.66 152H273.34L282 167ZM283.5 153.5V67H280.5V153.5H283.5Z" fill="black"/>
<path d="M438 190L423 181.34V198.66L438 190ZM318 191.5H424.5V188.5H318V191.5Z" fill="black"/>
<path d="M214 187L199 178.34V195.66L214 187ZM104 188.5H200.5V185.5H104V188.5Z" fill="black"/>
<path d="M438 353L423 344.34V361.66L438 353ZM318 354.5H424.5V351.5H318V354.5Z" fill="black"/>
<path d="M318 210L333 218.66V201.34L318 210ZM331.5 211.5H438V208.5H331.5V211.5Z" fill="black"/>
<path d="M104 207L119 215.66V198.34L104 207ZM117.5 208.5H214V205.5H117.5V208.5Z" fill="black"/>
<path d="M318 368L333 376.66V359.34L318 368ZM331.5 369.5H438V366.5H331.5V369.5Z" fill="black"/>
<path d="M282 330L290.66 315H273.34L282 330ZM283.5 316.5V230H280.5V316.5H283.5Z" fill="black"/>
<path d="M263 229L254.34 244H271.66L263 229ZM264.5 330V242.5H261.5V330H264.5Z" fill="black"/>
<path d="M257 67L248.34 82H265.66L257 67ZM258.5 167V80.5H255.5L255.5 167H258.5Z" fill="black"/>
<rect x="298" y="132" width="60" height="20" fill="white"/>
<path d="M315.982 142.9C315.982 143.865 315.762 144.643 315.32 145.232C314.879 145.822 314.281 146.117 313.527 146.117C312.758 146.117 312.152 145.873 311.711 145.385V148.438H310.627V139.66H311.617L311.67 140.363C312.111 139.816 312.725 139.543 313.51 139.543C314.271 139.543 314.873 139.83 315.314 140.404C315.76 140.979 315.982 141.777 315.982 142.801V142.9ZM314.898 142.777C314.898 142.062 314.746 141.498 314.441 141.084C314.137 140.67 313.719 140.463 313.188 140.463C312.531 140.463 312.039 140.754 311.711 141.336V144.365C312.035 144.943 312.531 145.232 313.199 145.232C313.719 145.232 314.131 145.027 314.436 144.617C314.744 144.203 314.898 143.59 314.898 142.777ZM319.996 146.117C319.137 146.117 318.438 145.836 317.898 145.273C317.359 144.707 317.09 143.951 317.09 143.006V142.807C317.09 142.178 317.209 141.617 317.447 141.125C317.689 140.629 318.025 140.242 318.455 139.965C318.889 139.684 319.357 139.543 319.861 139.543C320.686 139.543 321.326 139.814 321.783 140.357C322.24 140.9 322.469 141.678 322.469 142.689V143.141H318.174C318.189 143.766 318.371 144.271 318.719 144.658C319.07 145.041 319.516 145.232 320.055 145.232C320.438 145.232 320.762 145.154 321.027 144.998C321.293 144.842 321.525 144.635 321.725 144.377L322.387 144.893C321.855 145.709 321.059 146.117 319.996 146.117ZM319.861 140.434C319.424 140.434 319.057 140.594 318.76 140.914C318.463 141.23 318.279 141.676 318.209 142.25H321.385V142.168C321.354 141.617 321.205 141.191 320.939 140.891C320.674 140.586 320.314 140.434 319.861 140.434ZM326.793 140.633C326.629 140.605 326.451 140.592 326.26 140.592C325.549 140.592 325.066 140.895 324.812 141.5V146H323.729V139.66H324.783L324.801 140.393C325.156 139.826 325.66 139.543 326.312 139.543C326.523 139.543 326.684 139.57 326.793 139.625V140.633ZM331.486 144.318C331.486 144.025 331.375 143.799 331.152 143.639C330.934 143.475 330.549 143.334 329.998 143.217C329.451 143.1 329.016 142.959 328.691 142.795C328.371 142.631 328.133 142.436 327.977 142.209C327.824 141.982 327.748 141.713 327.748 141.4C327.748 140.881 327.967 140.441 328.404 140.082C328.846 139.723 329.408 139.543 330.092 139.543C330.811 139.543 331.393 139.729 331.838 140.1C332.287 140.471 332.512 140.945 332.512 141.523H331.422C331.422 141.227 331.295 140.971 331.041 140.756C330.791 140.541 330.475 140.434 330.092 140.434C329.697 140.434 329.389 140.52 329.166 140.691C328.943 140.863 328.832 141.088 328.832 141.365C328.832 141.627 328.936 141.824 329.143 141.957C329.35 142.09 329.723 142.217 330.262 142.338C330.805 142.459 331.244 142.604 331.58 142.771C331.916 142.939 332.164 143.143 332.324 143.381C332.488 143.615 332.57 143.902 332.57 144.242C332.57 144.809 332.344 145.264 331.891 145.607C331.438 145.947 330.85 146.117 330.127 146.117C329.619 146.117 329.17 146.027 328.779 145.848C328.389 145.668 328.082 145.418 327.859 145.098C327.641 144.773 327.531 144.424 327.531 144.049H328.615C328.635 144.412 328.779 144.701 329.049 144.916C329.322 145.127 329.682 145.232 330.127 145.232C330.537 145.232 330.865 145.15 331.111 144.986C331.361 144.818 331.486 144.596 331.486 144.318ZM335.16 146H334.076V139.66H335.16V146ZM333.988 137.979C333.988 137.803 334.041 137.654 334.146 137.533C334.256 137.412 334.416 137.352 334.627 137.352C334.838 137.352 334.998 137.412 335.107 137.533C335.217 137.654 335.271 137.803 335.271 137.979C335.271 138.154 335.217 138.301 335.107 138.418C334.998 138.535 334.838 138.594 334.627 138.594C334.416 138.594 334.256 138.535 334.146 138.418C334.041 138.301 333.988 138.154 333.988 137.979ZM340.592 144.318C340.592 144.025 340.48 143.799 340.258 143.639C340.039 143.475 339.654 143.334 339.104 143.217C338.557 143.1 338.121 142.959 337.797 142.795C337.477 142.631 337.238 142.436 337.082 142.209C336.93 141.982 336.854 141.713 336.854 141.4C336.854 140.881 337.072 140.441 337.51 140.082C337.951 139.723 338.514 139.543 339.197 139.543C339.916 139.543 340.498 139.729 340.943 140.1C341.393 140.471 341.617 140.945 341.617 141.523H340.527C340.527 141.227 340.4 140.971 340.146 140.756C339.896 140.541 339.58 140.434 339.197 140.434C338.803 140.434 338.494 140.52 338.271 140.691C338.049 140.863 337.938 141.088 337.938 141.365C337.938 141.627 338.041 141.824 338.248 141.957C338.455 142.09 338.828 142.217 339.367 142.338C339.91 142.459 340.35 142.604 340.686 142.771C341.021 142.939 341.27 143.143 341.43 143.381C341.594 143.615 341.676 143.902 341.676 144.242C341.676 144.809 341.449 145.264 340.996 145.607C340.543 145.947 339.955 146.117 339.232 146.117C338.725 146.117 338.275 146.027 337.885 145.848C337.494 145.668 337.188 145.418 336.965 145.098C336.746 144.773 336.637 144.424 336.637 144.049H337.721C337.74 144.412 337.885 144.701 338.154 144.916C338.428 145.127 338.787 145.232 339.232 145.232C339.643 145.232 339.971 145.15 340.217 144.986C340.467 144.818 340.592 144.596 340.592 144.318ZM344.559 138.125V139.66H345.742V140.498H344.559V144.43C344.559 144.684 344.611 144.875 344.717 145.004C344.822 145.129 345.002 145.191 345.256 145.191C345.381 145.191 345.553 145.168 345.771 145.121V146C345.486 146.078 345.209 146.117 344.939 146.117C344.455 146.117 344.09 145.971 343.844 145.678C343.598 145.385 343.475 144.969 343.475 144.43V140.498H342.32V139.66H343.475V138.125H344.559Z" fill="black"/>
<rect x="191" y="244" width="60" height="20" fill="white"/>
<path d="M208.982 257.9C208.982 258.865 208.762 259.643 208.32 260.232C207.879 260.822 207.281 261.117 206.527 261.117C205.758 261.117 205.152 260.873 204.711 260.385V263.438H203.627V254.66H204.617L204.67 255.363C205.111 254.816 205.725 254.543 206.51 254.543C207.271 254.543 207.873 254.83 208.314 255.404C208.76 255.979 208.982 256.777 208.982 257.801V257.9ZM207.898 257.777C207.898 257.062 207.746 256.498 207.441 256.084C207.137 255.67 206.719 255.463 206.188 255.463C205.531 255.463 205.039 255.754 204.711 256.336V259.365C205.035 259.943 205.531 260.232 206.199 260.232C206.719 260.232 207.131 260.027 207.436 259.617C207.744 259.203 207.898 258.59 207.898 257.777ZM212.996 261.117C212.137 261.117 211.438 260.836 210.898 260.273C210.359 259.707 210.09 258.951 210.09 258.006V257.807C210.09 257.178 210.209 256.617 210.447 256.125C210.689 255.629 211.025 255.242 211.455 254.965C211.889 254.684 212.357 254.543 212.861 254.543C213.686 254.543 214.326 254.814 214.783 255.357C215.24 255.9 215.469 256.678 215.469 257.689V258.141H211.174C211.189 258.766 211.371 259.271 211.719 259.658C212.07 260.041 212.516 260.232 213.055 260.232C213.438 260.232 213.762 260.154 214.027 259.998C214.293 259.842 214.525 259.635 214.725 259.377L215.387 259.893C214.855 260.709 214.059 261.117 212.996 261.117ZM212.861 255.434C212.424 255.434 212.057 255.594 211.76 255.914C211.463 256.23 211.279 256.676 211.209 257.25H214.385V257.168C214.354 256.617 214.205 256.191 213.939 255.891C213.674 255.586 213.314 255.434 212.861 255.434ZM219.793 255.633C219.629 255.605 219.451 255.592 219.26 255.592C218.549 255.592 218.066 255.895 217.812 256.5V261H216.729V254.66H217.783L217.801 255.393C218.156 254.826 218.66 254.543 219.312 254.543C219.523 254.543 219.684 254.57 219.793 254.625V255.633ZM224.486 259.318C224.486 259.025 224.375 258.799 224.152 258.639C223.934 258.475 223.549 258.334 222.998 258.217C222.451 258.1 222.016 257.959 221.691 257.795C221.371 257.631 221.133 257.436 220.977 257.209C220.824 256.982 220.748 256.713 220.748 256.4C220.748 255.881 220.967 255.441 221.404 255.082C221.846 254.723 222.408 254.543 223.092 254.543C223.811 254.543 224.393 254.729 224.838 255.1C225.287 255.471 225.512 255.945 225.512 256.523H224.422C224.422 256.227 224.295 255.971 224.041 255.756C223.791 255.541 223.475 255.434 223.092 255.434C222.697 255.434 222.389 255.52 222.166 255.691C221.943 255.863 221.832 256.088 221.832 256.365C221.832 256.627 221.936 256.824 222.143 256.957C222.35 257.09 222.723 257.217 223.262 257.338C223.805 257.459 224.244 257.604 224.58 257.771C224.916 257.939 225.164 258.143 225.324 258.381C225.488 258.615 225.57 258.902 225.57 259.242C225.57 259.809 225.344 260.264 224.891 260.607C224.438 260.947 223.85 261.117 223.127 261.117C222.619 261.117 222.17 261.027 221.779 260.848C221.389 260.668 221.082 260.418 220.859 260.098C220.641 259.773 220.531 259.424 220.531 259.049H221.615C221.635 259.412 221.779 259.701 222.049 259.916C222.322 260.127 222.682 260.232 223.127 260.232C223.537 260.232 223.865 260.15 224.111 259.986C224.361 259.818 224.486 259.596 224.486 259.318ZM228.16 261H227.076V254.66H228.16V261ZM226.988 252.979C226.988 252.803 227.041 252.654 227.146 252.533C227.256 252.412 227.416 252.352 227.627 252.352C227.838 252.352 227.998 252.412 228.107 252.533C228.217 252.654 228.271 252.803 228.271 252.979C228.271 253.154 228.217 253.301 228.107 253.418C227.998 253.535 227.838 253.594 227.627 253.594C227.416 253.594 227.256 253.535 227.146 253.418C227.041 253.301 226.988 253.154 226.988 252.979ZM233.592 259.318C233.592 259.025 233.48 258.799 233.258 258.639C233.039 258.475 232.654 258.334 232.104 258.217C231.557 258.1 231.121 257.959 230.797 257.795C230.477 257.631 230.238 257.436 230.082 257.209C229.93 256.982 229.854 256.713 229.854 256.4C229.854 255.881 230.072 255.441 230.51 255.082C230.951 254.723 231.514 254.543 232.197 254.543C232.916 254.543 233.498 254.729 233.943 255.1C234.393 255.471 234.617 255.945 234.617 256.523H233.527C233.527 256.227 233.4 255.971 233.146 255.756C232.896 255.541 232.58 255.434 232.197 255.434C231.803 255.434 231.494 255.52 231.271 255.691C231.049 255.863 230.938 256.088 230.938 256.365C230.938 256.627 231.041 256.824 231.248 256.957C231.455 257.09 231.828 257.217 232.367 257.338C232.91 257.459 233.35 257.604 233.686 257.771C234.021 257.939 234.27 258.143 234.43 258.381C234.594 258.615 234.676 258.902 234.676 259.242C234.676 259.809 234.449 260.264 233.996 260.607C233.543 260.947 232.955 261.117 232.232 261.117C231.725 261.117 231.275 261.027 230.885 260.848C230.494 260.668 230.188 260.418 229.965 260.098C229.746 259.773 229.637 259.424 229.637 259.049H230.721C230.74 259.412 230.885 259.701 231.154 259.916C231.428 260.127 231.787 260.232 232.232 260.232C232.643 260.232 232.971 260.15 233.217 259.986C233.467 259.818 233.592 259.596 233.592 259.318ZM237.559 253.125V254.66H238.742V255.498H237.559V259.43C237.559 259.684 237.611 259.875 237.717 260.004C237.822 260.129 238.002 260.191 238.256 260.191C238.381 260.191 238.553 260.168 238.771 260.121V261C238.486 261.078 238.209 261.117 237.939 261.117C237.455 261.117 237.09 260.971 236.844 260.678C236.598 260.385 236.475 259.969 236.475 259.43V255.498H235.32V254.66H236.475V253.125H237.559ZM203.756 269.633C203.592 269.605 203.414 269.592 203.223 269.592C202.512 269.592 202.029 269.895 201.775 270.5V275H200.691V268.66H201.746L201.764 269.393C202.119 268.826 202.623 268.543 203.275 268.543C203.486 268.543 203.646 268.57 203.756 268.625V269.633ZM204.354 271.771C204.354 271.15 204.475 270.592 204.717 270.096C204.963 269.6 205.303 269.217 205.736 268.947C206.174 268.678 206.672 268.543 207.23 268.543C208.094 268.543 208.791 268.842 209.322 269.439C209.857 270.037 210.125 270.832 210.125 271.824V271.9C210.125 272.518 210.006 273.072 209.768 273.564C209.533 274.053 209.195 274.434 208.754 274.707C208.316 274.98 207.812 275.117 207.242 275.117C206.383 275.117 205.686 274.818 205.15 274.221C204.619 273.623 204.354 272.832 204.354 271.848V271.771ZM205.443 271.9C205.443 272.604 205.605 273.168 205.93 273.594C206.258 274.02 206.695 274.232 207.242 274.232C207.793 274.232 208.23 274.018 208.555 273.588C208.879 273.154 209.041 272.549 209.041 271.771C209.041 271.076 208.875 270.514 208.543 270.084C208.215 269.65 207.777 269.434 207.23 269.434C206.695 269.434 206.264 269.646 205.936 270.072C205.607 270.498 205.443 271.107 205.443 271.9ZM212.662 275H211.578V266H212.662V275ZM215.58 275H214.496V266H215.58V275ZM222.688 271.9C222.688 272.869 222.465 273.648 222.02 274.238C221.574 274.824 220.977 275.117 220.227 275.117C219.426 275.117 218.807 274.834 218.369 274.268L218.316 275H217.32V266H218.404V269.357C218.842 268.814 219.445 268.543 220.215 268.543C220.984 268.543 221.588 268.834 222.025 269.416C222.467 269.998 222.688 270.795 222.688 271.807V271.9ZM221.604 271.777C221.604 271.039 221.461 270.469 221.176 270.066C220.891 269.664 220.48 269.463 219.945 269.463C219.23 269.463 218.717 269.795 218.404 270.459V273.201C218.736 273.865 219.254 274.197 219.957 274.197C220.477 274.197 220.881 273.996 221.17 273.594C221.459 273.191 221.604 272.586 221.604 271.777ZM227.973 275C227.91 274.875 227.859 274.652 227.82 274.332C227.316 274.855 226.715 275.117 226.016 275.117C225.391 275.117 224.877 274.941 224.475 274.59C224.076 274.234 223.877 273.785 223.877 273.242C223.877 272.582 224.127 272.07 224.627 271.707C225.131 271.34 225.838 271.156 226.748 271.156H227.803V270.658C227.803 270.279 227.689 269.979 227.463 269.756C227.236 269.529 226.902 269.416 226.461 269.416C226.074 269.416 225.75 269.514 225.488 269.709C225.227 269.904 225.096 270.141 225.096 270.418H224.006C224.006 270.102 224.117 269.797 224.34 269.504C224.566 269.207 224.871 268.973 225.254 268.801C225.641 268.629 226.064 268.543 226.525 268.543C227.256 268.543 227.828 268.727 228.242 269.094C228.656 269.457 228.871 269.959 228.887 270.6V273.518C228.887 274.1 228.961 274.562 229.109 274.906V275H227.973ZM226.174 274.174C226.514 274.174 226.836 274.086 227.141 273.91C227.445 273.734 227.666 273.506 227.803 273.225V271.924H226.953C225.625 271.924 224.961 272.312 224.961 273.09C224.961 273.43 225.074 273.695 225.301 273.887C225.527 274.078 225.818 274.174 226.174 274.174ZM233.129 274.232C233.516 274.232 233.854 274.115 234.143 273.881C234.432 273.646 234.592 273.354 234.623 273.002H235.648C235.629 273.365 235.504 273.711 235.273 274.039C235.043 274.367 234.734 274.629 234.348 274.824C233.965 275.02 233.559 275.117 233.129 275.117C232.266 275.117 231.578 274.83 231.066 274.256C230.559 273.678 230.305 272.889 230.305 271.889V271.707C230.305 271.09 230.418 270.541 230.645 270.061C230.871 269.58 231.195 269.207 231.617 268.941C232.043 268.676 232.545 268.543 233.123 268.543C233.834 268.543 234.424 268.756 234.893 269.182C235.365 269.607 235.617 270.16 235.648 270.84H234.623C234.592 270.43 234.436 270.094 234.154 269.832C233.877 269.566 233.533 269.434 233.123 269.434C232.572 269.434 232.145 269.633 231.84 270.031C231.539 270.426 231.389 270.998 231.389 271.748V271.953C231.389 272.684 231.539 273.246 231.84 273.641C232.141 274.035 232.57 274.232 233.129 274.232ZM238.637 272.064L237.957 272.773V275H236.873V266H237.957V271.443L238.537 270.746L240.512 268.66H241.83L239.363 271.309L242.117 275H240.846L238.637 272.064Z" fill="black"/>
<rect x="378" y="152" width="60" height="20" fill="white"/>
<path d="M390.855 165.232C391.242 165.232 391.58 165.115 391.869 164.881C392.158 164.646 392.318 164.354 392.35 164.002H393.375C393.355 164.365 393.23 164.711 393 165.039C392.77 165.367 392.461 165.629 392.074 165.824C391.691 166.02 391.285 166.117 390.855 166.117C389.992 166.117 389.305 165.83 388.793 165.256C388.285 164.678 388.031 163.889 388.031 162.889V162.707C388.031 162.09 388.145 161.541 388.371 161.061C388.598 160.58 388.922 160.207 389.344 159.941C389.77 159.676 390.271 159.543 390.85 159.543C391.561 159.543 392.15 159.756 392.619 160.182C393.092 160.607 393.344 161.16 393.375 161.84H392.35C392.318 161.43 392.162 161.094 391.881 160.832C391.604 160.566 391.26 160.434 390.85 160.434C390.299 160.434 389.871 160.633 389.566 161.031C389.266 161.426 389.115 161.998 389.115 162.748V162.953C389.115 163.684 389.266 164.246 389.566 164.641C389.867 165.035 390.297 165.232 390.855 165.232ZM394.307 162.771C394.307 162.15 394.428 161.592 394.67 161.096C394.916 160.6 395.256 160.217 395.689 159.947C396.127 159.678 396.625 159.543 397.184 159.543C398.047 159.543 398.744 159.842 399.275 160.439C399.811 161.037 400.078 161.832 400.078 162.824V162.9C400.078 163.518 399.959 164.072 399.721 164.564C399.486 165.053 399.148 165.434 398.707 165.707C398.27 165.98 397.766 166.117 397.195 166.117C396.336 166.117 395.639 165.818 395.104 165.221C394.572 164.623 394.307 163.832 394.307 162.848V162.771ZM395.396 162.9C395.396 163.604 395.559 164.168 395.883 164.594C396.211 165.02 396.648 165.232 397.195 165.232C397.746 165.232 398.184 165.018 398.508 164.588C398.832 164.154 398.994 163.549 398.994 162.771C398.994 162.076 398.828 161.514 398.496 161.084C398.168 160.65 397.73 160.434 397.184 160.434C396.648 160.434 396.217 160.646 395.889 161.072C395.561 161.498 395.396 162.107 395.396 162.9ZM402.457 159.66L402.486 160.363C402.951 159.816 403.578 159.543 404.367 159.543C405.254 159.543 405.857 159.883 406.178 160.562C406.389 160.258 406.662 160.012 406.998 159.824C407.338 159.637 407.738 159.543 408.199 159.543C409.59 159.543 410.297 160.279 410.32 161.752V166H409.236V161.816C409.236 161.363 409.133 161.025 408.926 160.803C408.719 160.576 408.371 160.463 407.883 160.463C407.48 160.463 407.146 160.584 406.881 160.826C406.615 161.064 406.461 161.387 406.418 161.793V166H405.328V161.846C405.328 160.924 404.877 160.463 403.975 160.463C403.264 160.463 402.777 160.766 402.516 161.371V166H401.432V159.66H402.457ZM412.98 159.66L413.01 160.363C413.475 159.816 414.102 159.543 414.891 159.543C415.777 159.543 416.381 159.883 416.701 160.562C416.912 160.258 417.186 160.012 417.521 159.824C417.861 159.637 418.262 159.543 418.723 159.543C420.113 159.543 420.82 160.279 420.844 161.752V166H419.76V161.816C419.76 161.363 419.656 161.025 419.449 160.803C419.242 160.576 418.895 160.463 418.406 160.463C418.004 160.463 417.67 160.584 417.404 160.826C417.139 161.064 416.984 161.387 416.941 161.793V166H415.852V161.846C415.852 160.924 415.4 160.463 414.498 160.463C413.787 160.463 413.301 160.766 413.039 161.371V166H411.955V159.66H412.98ZM423.662 166H422.578V159.66H423.662V166ZM422.49 157.979C422.49 157.803 422.543 157.654 422.648 157.533C422.758 157.412 422.918 157.352 423.129 157.352C423.34 157.352 423.5 157.412 423.609 157.533C423.719 157.654 423.773 157.803 423.773 157.979C423.773 158.154 423.719 158.301 423.609 158.418C423.5 158.535 423.34 158.594 423.129 158.594C422.918 158.594 422.758 158.535 422.648 158.418C422.543 158.301 422.49 158.154 422.49 157.979ZM426.873 158.125V159.66H428.057V160.498H426.873V164.43C426.873 164.684 426.926 164.875 427.031 165.004C427.137 165.129 427.316 165.191 427.57 165.191C427.695 165.191 427.867 165.168 428.086 165.121V166C427.801 166.078 427.523 166.117 427.254 166.117C426.77 166.117 426.404 165.971 426.158 165.678C425.912 165.385 425.789 164.969 425.789 164.43V160.498H424.635V159.66H425.789V158.125H426.873Z" fill="black"/>
<rect x="332" y="222" width="60" height="20" fill="white"/>
<path d="M353.164 236V230.498H352.162V229.66H353.164V229.121C353.164 228.414 353.365 227.863 353.768 227.469C354.174 227.074 354.746 226.877 355.484 226.877C355.922 226.877 356.475 226.996 357.143 227.234L356.961 228.148C356.473 227.953 356.008 227.855 355.566 227.855C355.102 227.855 354.766 227.961 354.559 228.172C354.355 228.379 354.254 228.691 354.254 229.109V229.66H355.549V230.498H354.254V236H353.164ZM357.682 236H356.592V229.66H357.682V236ZM360.471 229.66L360.506 230.457C360.99 229.848 361.623 229.543 362.404 229.543C363.744 229.543 364.42 230.299 364.432 231.811V236H363.348V231.805C363.344 231.348 363.238 231.01 363.031 230.791C362.828 230.572 362.51 230.463 362.076 230.463C361.725 230.463 361.416 230.557 361.15 230.744C360.885 230.932 360.678 231.178 360.529 231.482V236H359.445V229.66H360.471ZM365.803 232.777C365.803 231.805 366.033 231.023 366.494 230.434C366.955 229.84 367.559 229.543 368.305 229.543C369.047 229.543 369.635 229.797 370.068 230.305V227H371.152V236H370.156L370.104 235.32C369.67 235.852 369.066 236.117 368.293 236.117C367.559 236.117 366.959 235.816 366.494 235.215C366.033 234.613 365.803 233.828 365.803 232.859V232.777ZM366.887 232.9C366.887 233.619 367.035 234.182 367.332 234.588C367.629 234.994 368.039 235.197 368.562 235.197C369.25 235.197 369.752 234.889 370.068 234.271V231.359C369.744 230.762 369.246 230.463 368.574 230.463C368.043 230.463 367.629 230.668 367.332 231.078C367.035 231.488 366.887 232.096 366.887 232.9Z" fill="black"/>
<rect x="298" y="298" width="60" height="20" fill="white"/>
<path d="M312.045 306.633C311.881 306.605 311.703 306.592 311.512 306.592C310.801 306.592 310.318 306.895 310.064 307.5V312H308.98V305.66H310.035L310.053 306.393C310.408 305.826 310.912 305.543 311.564 305.543C311.775 305.543 311.936 305.57 312.045 305.625V306.633ZM315.561 312.117C314.701 312.117 314.002 311.836 313.463 311.273C312.924 310.707 312.654 309.951 312.654 309.006V308.807C312.654 308.178 312.773 307.617 313.012 307.125C313.254 306.629 313.59 306.242 314.02 305.965C314.453 305.684 314.922 305.543 315.426 305.543C316.25 305.543 316.891 305.814 317.348 306.357C317.805 306.9 318.033 307.678 318.033 308.689V309.141H313.738C313.754 309.766 313.936 310.271 314.283 310.658C314.635 311.041 315.08 311.232 315.619 311.232C316.002 311.232 316.326 311.154 316.592 310.998C316.857 310.842 317.09 310.635 317.289 310.377L317.951 310.893C317.42 311.709 316.623 312.117 315.561 312.117ZM315.426 306.434C314.988 306.434 314.621 306.594 314.324 306.914C314.027 307.23 313.844 307.676 313.773 308.25H316.949V308.168C316.918 307.617 316.77 307.191 316.504 306.891C316.238 306.586 315.879 306.434 315.426 306.434ZM320.312 305.66L320.342 306.363C320.807 305.816 321.434 305.543 322.223 305.543C323.109 305.543 323.713 305.883 324.033 306.562C324.244 306.258 324.518 306.012 324.854 305.824C325.193 305.637 325.594 305.543 326.055 305.543C327.445 305.543 328.152 306.279 328.176 307.752V312H327.092V307.816C327.092 307.363 326.988 307.025 326.781 306.803C326.574 306.576 326.227 306.463 325.738 306.463C325.336 306.463 325.002 306.584 324.736 306.826C324.471 307.064 324.316 307.387 324.273 307.793V312H323.184V307.846C323.184 306.924 322.732 306.463 321.83 306.463C321.119 306.463 320.633 306.766 320.371 307.371V312H319.287V305.66H320.312ZM329.529 308.771C329.529 308.15 329.65 307.592 329.893 307.096C330.139 306.6 330.479 306.217 330.912 305.947C331.35 305.678 331.848 305.543 332.406 305.543C333.27 305.543 333.967 305.842 334.498 306.439C335.033 307.037 335.301 307.832 335.301 308.824V308.9C335.301 309.518 335.182 310.072 334.943 310.564C334.709 311.053 334.371 311.434 333.93 311.707C333.492 311.98 332.988 312.117 332.418 312.117C331.559 312.117 330.861 311.818 330.326 311.221C329.795 310.623 329.529 309.832 329.529 308.848V308.771ZM330.619 308.9C330.619 309.604 330.781 310.168 331.105 310.594C331.434 311.02 331.871 311.232 332.418 311.232C332.969 311.232 333.406 311.018 333.73 310.588C334.055 310.154 334.217 309.549 334.217 308.771C334.217 308.076 334.051 307.514 333.719 307.084C333.391 306.65 332.953 306.434 332.406 306.434C331.871 306.434 331.439 306.646 331.111 307.072C330.783 307.498 330.619 308.107 330.619 308.9ZM338.658 310.529L340.229 305.66H341.336L339.062 312H338.236L335.939 305.66H337.047L338.658 310.529ZM344.928 312.117C344.068 312.117 343.369 311.836 342.83 311.273C342.291 310.707 342.021 309.951 342.021 309.006V308.807C342.021 308.178 342.141 307.617 342.379 307.125C342.621 306.629 342.957 306.242 343.387 305.965C343.82 305.684 344.289 305.543 344.793 305.543C345.617 305.543 346.258 305.814 346.715 306.357C347.172 306.9 347.4 307.678 347.4 308.689V309.141H343.105C343.121 309.766 343.303 310.271 343.65 310.658C344.002 311.041 344.447 311.232 344.986 311.232C345.369 311.232 345.693 311.154 345.959 310.998C346.225 310.842 346.457 310.635 346.656 310.377L347.318 310.893C346.787 311.709 345.99 312.117 344.928 312.117ZM344.793 306.434C344.355 306.434 343.988 306.594 343.691 306.914C343.395 307.23 343.211 307.676 343.141 308.25H346.316V308.168C346.285 307.617 346.137 307.191 345.871 306.891C345.605 306.586 345.246 306.434 344.793 306.434Z" fill="black"/>
<rect x="378" y="318" width="60" height="20" fill="white"/>
<path d="M399.662 323.92C399.178 323.842 398.787 323.803 398.49 323.803C397.709 323.803 397.318 324.213 397.318 325.033V325.66H398.672V326.498H397.318V332H396.234V326.498H395.232V325.66H396.234V324.969C396.238 324.293 396.428 323.775 396.803 323.416C397.178 323.057 397.711 322.877 398.402 322.877C398.797 322.877 399.578 322.996 400.746 323.234V332H399.662V323.92ZM406.436 331.373C406.014 331.869 405.395 332.117 404.578 332.117C403.902 332.117 403.387 331.922 403.031 331.531C402.68 331.137 402.502 330.555 402.498 329.785V325.66H403.582V329.756C403.582 330.717 403.973 331.197 404.754 331.197C405.582 331.197 406.133 330.889 406.406 330.271V325.66H407.49V332H406.459L406.436 331.373ZM412.834 330.318C412.834 330.025 412.723 329.799 412.5 329.639C412.281 329.475 411.896 329.334 411.346 329.217C410.799 329.1 410.363 328.959 410.039 328.795C409.719 328.631 409.48 328.436 409.324 328.209C409.172 327.982 409.096 327.713 409.096 327.4C409.096 326.881 409.314 326.441 409.752 326.082C410.193 325.723 410.756 325.543 411.439 325.543C412.158 325.543 412.74 325.729 413.186 326.1C413.635 326.471 413.859 326.945 413.859 327.523H412.77C412.77 327.227 412.643 326.971 412.389 326.756C412.139 326.541 411.822 326.434 411.439 326.434C411.045 326.434 410.736 326.52 410.514 326.691C410.291 326.863 410.18 327.088 410.18 327.365C410.18 327.627 410.283 327.824 410.49 327.957C410.697 328.09 411.07 328.217 411.609 328.338C412.152 328.459 412.592 328.604 412.928 328.771C413.264 328.939 413.512 329.143 413.672 329.381C413.836 329.615 413.918 329.902 413.918 330.242C413.918 330.809 413.691 331.264 413.238 331.607C412.785 331.947 412.197 332.117 411.475 332.117C410.967 332.117 410.518 332.027 410.127 331.848C409.736 331.668 409.43 331.418 409.207 331.098C408.988 330.773 408.879 330.424 408.879 330.049H409.963C409.982 330.412 410.127 330.701 410.396 330.916C410.67 331.127 411.029 331.232 411.475 331.232C411.885 331.232 412.213 331.15 412.459 330.986C412.709 330.818 412.834 330.596 412.834 330.318ZM416.414 326.428C416.895 325.838 417.52 325.543 418.289 325.543C419.629 325.543 420.305 326.299 420.316 327.811V332H419.232V327.805C419.229 327.348 419.123 327.01 418.916 326.791C418.713 326.572 418.395 326.463 417.961 326.463C417.609 326.463 417.301 326.557 417.035 326.744C416.77 326.932 416.562 327.178 416.414 327.482V332H415.33V323H416.414V326.428Z" fill="black"/>
<rect x="318" y="383" width="60" height="20" fill="white"/>
<path d="M335.982 393.9C335.982 394.865 335.762 395.643 335.32 396.232C334.879 396.822 334.281 397.117 333.527 397.117C332.758 397.117 332.152 396.873 331.711 396.385V399.438H330.627V390.66H331.617L331.67 391.363C332.111 390.816 332.725 390.543 333.51 390.543C334.271 390.543 334.873 390.83 335.314 391.404C335.76 391.979 335.982 392.777 335.982 393.801V393.9ZM334.898 393.777C334.898 393.062 334.746 392.498 334.441 392.084C334.137 391.67 333.719 391.463 333.188 391.463C332.531 391.463 332.039 391.754 331.711 392.336V395.365C332.035 395.943 332.531 396.232 333.199 396.232C333.719 396.232 334.131 396.027 334.436 395.617C334.744 395.203 334.898 394.59 334.898 393.777ZM339.996 397.117C339.137 397.117 338.438 396.836 337.898 396.273C337.359 395.707 337.09 394.951 337.09 394.006V393.807C337.09 393.178 337.209 392.617 337.447 392.125C337.689 391.629 338.025 391.242 338.455 390.965C338.889 390.684 339.357 390.543 339.861 390.543C340.686 390.543 341.326 390.814 341.783 391.357C342.24 391.9 342.469 392.678 342.469 393.689V394.141H338.174C338.189 394.766 338.371 395.271 338.719 395.658C339.07 396.041 339.516 396.232 340.055 396.232C340.438 396.232 340.762 396.154 341.027 395.998C341.293 395.842 341.525 395.635 341.725 395.377L342.387 395.893C341.855 396.709 341.059 397.117 339.996 397.117ZM339.861 391.434C339.424 391.434 339.057 391.594 338.76 391.914C338.463 392.23 338.279 392.676 338.209 393.25H341.385V393.168C341.354 392.617 341.205 392.191 340.939 391.891C340.674 391.586 340.314 391.434 339.861 391.434ZM346.793 391.633C346.629 391.605 346.451 391.592 346.26 391.592C345.549 391.592 345.066 391.895 344.812 392.5V397H343.729V390.66H344.783L344.801 391.393C345.156 390.826 345.66 390.543 346.312 390.543C346.523 390.543 346.684 390.57 346.793 390.625V391.633ZM351.486 395.318C351.486 395.025 351.375 394.799 351.152 394.639C350.934 394.475 350.549 394.334 349.998 394.217C349.451 394.1 349.016 393.959 348.691 393.795C348.371 393.631 348.133 393.436 347.977 393.209C347.824 392.982 347.748 392.713 347.748 392.4C347.748 391.881 347.967 391.441 348.404 391.082C348.846 390.723 349.408 390.543 350.092 390.543C350.811 390.543 351.393 390.729 351.838 391.1C352.287 391.471 352.512 391.945 352.512 392.523H351.422C351.422 392.227 351.295 391.971 351.041 391.756C350.791 391.541 350.475 391.434 350.092 391.434C349.697 391.434 349.389 391.52 349.166 391.691C348.943 391.863 348.832 392.088 348.832 392.365C348.832 392.627 348.936 392.824 349.143 392.957C349.35 393.09 349.723 393.217 350.262 393.338C350.805 393.459 351.244 393.604 351.58 393.771C351.916 393.939 352.164 394.143 352.324 394.381C352.488 394.615 352.57 394.902 352.57 395.242C352.57 395.809 352.344 396.264 351.891 396.607C351.438 396.947 350.85 397.117 350.127 397.117C349.619 397.117 349.17 397.027 348.779 396.848C348.389 396.668 348.082 396.418 347.859 396.098C347.641 395.773 347.531 395.424 347.531 395.049H348.615C348.635 395.412 348.779 395.701 349.049 395.916C349.322 396.127 349.682 396.232 350.127 396.232C350.537 396.232 350.865 396.15 351.111 395.986C351.361 395.818 351.486 395.596 351.486 395.318ZM355.16 397H354.076V390.66H355.16V397ZM353.988 388.979C353.988 388.803 354.041 388.654 354.146 388.533C354.256 388.412 354.416 388.352 354.627 388.352C354.838 388.352 354.998 388.412 355.107 388.533C355.217 388.654 355.271 388.803 355.271 388.979C355.271 389.154 355.217 389.301 355.107 389.418C354.998 389.535 354.838 389.594 354.627 389.594C354.416 389.594 354.256 389.535 354.146 389.418C354.041 389.301 353.988 389.154 353.988 388.979ZM360.592 395.318C360.592 395.025 360.48 394.799 360.258 394.639C360.039 394.475 359.654 394.334 359.104 394.217C358.557 394.1 358.121 393.959 357.797 393.795C357.477 393.631 357.238 393.436 357.082 393.209C356.93 392.982 356.854 392.713 356.854 392.4C356.854 391.881 357.072 391.441 357.51 391.082C357.951 390.723 358.514 390.543 359.197 390.543C359.916 390.543 360.498 390.729 360.943 391.1C361.393 391.471 361.617 391.945 361.617 392.523H360.527C360.527 392.227 360.4 391.971 360.146 391.756C359.896 391.541 359.58 391.434 359.197 391.434C358.803 391.434 358.494 391.52 358.271 391.691C358.049 391.863 357.938 392.088 357.938 392.365C357.938 392.627 358.041 392.824 358.248 392.957C358.455 393.09 358.828 393.217 359.367 393.338C359.91 393.459 360.35 393.604 360.686 393.771C361.021 393.939 361.27 394.143 361.43 394.381C361.594 394.615 361.676 394.902 361.676 395.242C361.676 395.809 361.449 396.264 360.996 396.607C360.543 396.947 359.955 397.117 359.232 397.117C358.725 397.117 358.275 397.027 357.885 396.848C357.494 396.668 357.188 396.418 356.965 396.098C356.746 395.773 356.637 395.424 356.637 395.049H357.721C357.74 395.412 357.885 395.701 358.154 395.916C358.428 396.127 358.787 396.232 359.232 396.232C359.643 396.232 359.971 396.15 360.217 395.986C360.467 395.818 360.592 395.596 360.592 395.318ZM364.559 389.125V390.66H365.742V391.498H364.559V395.43C364.559 395.684 364.611 395.875 364.717 396.004C364.822 396.129 365.002 396.191 365.256 396.191C365.381 396.191 365.553 396.168 365.771 396.121V397C365.486 397.078 365.209 397.117 364.939 397.117C364.455 397.117 364.09 396.971 363.844 396.678C363.598 396.385 363.475 395.969 363.475 395.43V391.498H362.32V390.66H363.475V389.125H364.559Z" fill="black"/>
<rect x="119" y="222" width="60" height="60" fill="white"/>
<path d="M131.316 238.777C131.316 237.805 131.547 237.023 132.008 236.434C132.469 235.84 133.072 235.543 133.818 235.543C134.561 235.543 135.148 235.797 135.582 236.305V233H136.666V242H135.67L135.617 241.32C135.184 241.852 134.58 242.117 133.807 242.117C133.072 242.117 132.473 241.816 132.008 241.215C131.547 240.613 131.316 239.828 131.316 238.859V238.777ZM132.4 238.9C132.4 239.619 132.549 240.182 132.846 240.588C133.143 240.994 133.553 241.197 134.076 241.197C134.764 241.197 135.266 240.889 135.582 240.271V237.359C135.258 236.762 134.76 236.463 134.088 236.463C133.557 236.463 133.143 236.668 132.846 237.078C132.549 237.488 132.4 238.096 132.4 238.9ZM140.984 242.117C140.125 242.117 139.426 241.836 138.887 241.273C138.348 240.707 138.078 239.951 138.078 239.006V238.807C138.078 238.178 138.197 237.617 138.436 237.125C138.678 236.629 139.014 236.242 139.443 235.965C139.877 235.684 140.346 235.543 140.85 235.543C141.674 235.543 142.314 235.814 142.771 236.357C143.229 236.9 143.457 237.678 143.457 238.689V239.141H139.162C139.178 239.766 139.359 240.271 139.707 240.658C140.059 241.041 140.504 241.232 141.043 241.232C141.426 241.232 141.75 241.154 142.016 240.998C142.281 240.842 142.514 240.635 142.713 240.377L143.375 240.893C142.844 241.709 142.047 242.117 140.984 242.117ZM140.85 236.434C140.412 236.434 140.045 236.594 139.748 236.914C139.451 237.23 139.268 237.676 139.197 238.25H142.373V238.168C142.342 237.617 142.193 237.191 141.928 236.891C141.662 236.586 141.303 236.434 140.85 236.434ZM146.188 234.125V235.66H147.371V236.498H146.188V240.43C146.188 240.684 146.24 240.875 146.346 241.004C146.451 241.129 146.631 241.191 146.885 241.191C147.01 241.191 147.182 241.168 147.4 241.121V242C147.115 242.078 146.838 242.117 146.568 242.117C146.084 242.117 145.719 241.971 145.473 241.678C145.227 241.385 145.104 240.969 145.104 240.43V236.498H143.949V235.66H145.104V234.125H146.188ZM152.557 242C152.494 241.875 152.443 241.652 152.404 241.332C151.9 241.855 151.299 242.117 150.6 242.117C149.975 242.117 149.461 241.941 149.059 241.59C148.66 241.234 148.461 240.785 148.461 240.242C148.461 239.582 148.711 239.07 149.211 238.707C149.715 238.34 150.422 238.156 151.332 238.156H152.387V237.658C152.387 237.279 152.273 236.979 152.047 236.756C151.82 236.529 151.486 236.416 151.045 236.416C150.658 236.416 150.334 236.514 150.072 236.709C149.811 236.904 149.68 237.141 149.68 237.418H148.59C148.59 237.102 148.701 236.797 148.924 236.504C149.15 236.207 149.455 235.973 149.838 235.801C150.225 235.629 150.648 235.543 151.109 235.543C151.84 235.543 152.412 235.727 152.826 236.094C153.24 236.457 153.455 236.959 153.471 237.6V240.518C153.471 241.1 153.545 241.562 153.693 241.906V242H152.557ZM150.758 241.174C151.098 241.174 151.42 241.086 151.725 240.91C152.029 240.734 152.25 240.506 152.387 240.225V238.924H151.537C150.209 238.924 149.545 239.312 149.545 240.09C149.545 240.43 149.658 240.695 149.885 240.887C150.111 241.078 150.402 241.174 150.758 241.174ZM157.713 241.232C158.1 241.232 158.438 241.115 158.727 240.881C159.016 240.646 159.176 240.354 159.207 240.002H160.232C160.213 240.365 160.088 240.711 159.857 241.039C159.627 241.367 159.318 241.629 158.932 241.824C158.549 242.02 158.143 242.117 157.713 242.117C156.85 242.117 156.162 241.83 155.65 241.256C155.143 240.678 154.889 239.889 154.889 238.889V238.707C154.889 238.09 155.002 237.541 155.229 237.061C155.455 236.58 155.779 236.207 156.201 235.941C156.627 235.676 157.129 235.543 157.707 235.543C158.418 235.543 159.008 235.756 159.477 236.182C159.949 236.607 160.201 237.16 160.232 237.84H159.207C159.176 237.43 159.02 237.094 158.738 236.832C158.461 236.566 158.117 236.434 157.707 236.434C157.156 236.434 156.729 236.633 156.424 237.031C156.123 237.426 155.973 237.998 155.973 238.748V238.953C155.973 239.684 156.123 240.246 156.424 240.641C156.725 241.035 157.154 241.232 157.713 241.232ZM162.535 236.428C163.016 235.838 163.641 235.543 164.41 235.543C165.75 235.543 166.426 236.299 166.438 237.811V242H165.354V237.805C165.35 237.348 165.244 237.01 165.037 236.791C164.834 236.572 164.516 236.463 164.082 236.463C163.73 236.463 163.422 236.557 163.156 236.744C162.891 236.932 162.684 237.178 162.535 237.482V242H161.451V233H162.535V236.428ZM139.285 255.232C139.672 255.232 140.01 255.115 140.299 254.881C140.588 254.646 140.748 254.354 140.779 254.002H141.805C141.785 254.365 141.66 254.711 141.43 255.039C141.199 255.367 140.891 255.629 140.504 255.824C140.121 256.02 139.715 256.117 139.285 256.117C138.422 256.117 137.734 255.83 137.223 255.256C136.715 254.678 136.461 253.889 136.461 252.889V252.707C136.461 252.09 136.574 251.541 136.801 251.061C137.027 250.58 137.352 250.207 137.773 249.941C138.199 249.676 138.701 249.543 139.279 249.543C139.99 249.543 140.58 249.756 141.049 250.182C141.521 250.607 141.773 251.16 141.805 251.84H140.779C140.748 251.43 140.592 251.094 140.311 250.832C140.033 250.566 139.689 250.434 139.279 250.434C138.729 250.434 138.301 250.633 137.996 251.031C137.695 251.426 137.545 251.998 137.545 252.748V252.953C137.545 253.684 137.695 254.246 137.996 254.641C138.297 255.035 138.727 255.232 139.285 255.232ZM144.201 256H143.117V247H144.201V256ZM148.572 256.117C147.713 256.117 147.014 255.836 146.475 255.273C145.936 254.707 145.666 253.951 145.666 253.006V252.807C145.666 252.178 145.785 251.617 146.023 251.125C146.266 250.629 146.602 250.242 147.031 249.965C147.465 249.684 147.934 249.543 148.438 249.543C149.262 249.543 149.902 249.814 150.359 250.357C150.816 250.9 151.045 251.678 151.045 252.689V253.141H146.75C146.766 253.766 146.947 254.271 147.295 254.658C147.646 255.041 148.092 255.232 148.631 255.232C149.014 255.232 149.338 255.154 149.604 254.998C149.869 254.842 150.102 254.635 150.301 254.377L150.963 254.893C150.432 255.709 149.635 256.117 148.572 256.117ZM148.438 250.434C148 250.434 147.633 250.594 147.336 250.914C147.039 251.23 146.855 251.676 146.785 252.25H149.961V252.168C149.93 251.617 149.781 251.191 149.516 250.891C149.25 250.586 148.891 250.434 148.438 250.434ZM156.219 256C156.156 255.875 156.105 255.652 156.066 255.332C155.562 255.855 154.961 256.117 154.262 256.117C153.637 256.117 153.123 255.941 152.721 255.59C152.322 255.234 152.123 254.785 152.123 254.242C152.123 253.582 152.373 253.07 152.873 252.707C153.377 252.34 154.084 252.156 154.994 252.156H156.049V251.658C156.049 251.279 155.936 250.979 155.709 250.756C155.482 250.529 155.148 250.416 154.707 250.416C154.32 250.416 153.996 250.514 153.734 250.709C153.473 250.904 153.342 251.141 153.342 251.418H152.252C152.252 251.102 152.363 250.797 152.586 250.504C152.812 250.207 153.117 249.973 153.5 249.801C153.887 249.629 154.311 249.543 154.771 249.543C155.502 249.543 156.074 249.727 156.488 250.094C156.902 250.457 157.117 250.959 157.133 251.6V254.518C157.133 255.1 157.207 255.562 157.355 255.906V256H156.219ZM154.42 255.174C154.76 255.174 155.082 255.086 155.387 254.91C155.691 254.734 155.912 254.506 156.049 254.225V252.924H155.199C153.871 252.924 153.207 253.312 153.207 254.09C153.207 254.43 153.32 254.695 153.547 254.887C153.773 255.078 154.064 255.174 154.42 255.174ZM161.896 250.633C161.732 250.605 161.555 250.592 161.363 250.592C160.652 250.592 160.17 250.895 159.916 251.5V256H158.832V249.66H159.887L159.904 250.393C160.26 249.826 160.764 249.543 161.416 249.543C161.627 249.543 161.787 249.57 161.896 249.625V250.633ZM138.066 269.232C138.453 269.232 138.791 269.115 139.08 268.881C139.369 268.646 139.529 268.354 139.561 268.002H140.586C140.566 268.365 140.441 268.711 140.211 269.039C139.98 269.367 139.672 269.629 139.285 269.824C138.902 270.02 138.496 270.117 138.066 270.117C137.203 270.117 136.516 269.83 136.004 269.256C135.496 268.678 135.242 267.889 135.242 266.889V266.707C135.242 266.09 135.355 265.541 135.582 265.061C135.809 264.58 136.133 264.207 136.555 263.941C136.98 263.676 137.482 263.543 138.061 263.543C138.771 263.543 139.361 263.756 139.83 264.182C140.303 264.607 140.555 265.16 140.586 265.84H139.561C139.529 265.43 139.373 265.094 139.092 264.832C138.814 264.566 138.471 264.434 138.061 264.434C137.51 264.434 137.082 264.633 136.777 265.031C136.477 265.426 136.326 265.998 136.326 266.748V266.953C136.326 267.684 136.477 268.246 136.777 268.641C137.078 269.035 137.508 269.232 138.066 269.232ZM142.982 270H141.898V261H142.982V270ZM144.436 266.771C144.436 266.15 144.557 265.592 144.799 265.096C145.045 264.6 145.385 264.217 145.818 263.947C146.256 263.678 146.754 263.543 147.312 263.543C148.176 263.543 148.873 263.842 149.404 264.439C149.939 265.037 150.207 265.832 150.207 266.824V266.9C150.207 267.518 150.088 268.072 149.85 268.564C149.615 269.053 149.277 269.434 148.836 269.707C148.398 269.98 147.895 270.117 147.324 270.117C146.465 270.117 145.768 269.818 145.232 269.221C144.701 268.623 144.436 267.832 144.436 266.848V266.771ZM145.525 266.9C145.525 267.604 145.688 268.168 146.012 268.594C146.34 269.02 146.777 269.232 147.324 269.232C147.875 269.232 148.312 269.018 148.637 268.588C148.961 268.154 149.123 267.549 149.123 266.771C149.123 266.076 148.957 265.514 148.625 265.084C148.297 264.65 147.859 264.434 147.312 264.434C146.777 264.434 146.346 264.646 146.018 265.072C145.689 265.498 145.525 266.107 145.525 266.9ZM155.258 268.318C155.258 268.025 155.146 267.799 154.924 267.639C154.705 267.475 154.32 267.334 153.77 267.217C153.223 267.1 152.787 266.959 152.463 266.795C152.143 266.631 151.904 266.436 151.748 266.209C151.596 265.982 151.52 265.713 151.52 265.4C151.52 264.881 151.738 264.441 152.176 264.082C152.617 263.723 153.18 263.543 153.863 263.543C154.582 263.543 155.164 263.729 155.609 264.1C156.059 264.471 156.283 264.945 156.283 265.523H155.193C155.193 265.227 155.066 264.971 154.812 264.756C154.562 264.541 154.246 264.434 153.863 264.434C153.469 264.434 153.16 264.52 152.938 264.691C152.715 264.863 152.604 265.088 152.604 265.365C152.604 265.627 152.707 265.824 152.914 265.957C153.121 266.09 153.494 266.217 154.033 266.338C154.576 266.459 155.016 266.604 155.352 266.771C155.688 266.939 155.936 267.143 156.096 267.381C156.26 267.615 156.342 267.902 156.342 268.242C156.342 268.809 156.115 269.264 155.662 269.607C155.209 269.947 154.621 270.117 153.898 270.117C153.391 270.117 152.941 270.027 152.551 269.848C152.16 269.668 151.854 269.418 151.631 269.098C151.412 268.773 151.303 268.424 151.303 268.049H152.387C152.406 268.412 152.551 268.701 152.82 268.916C153.094 269.127 153.453 269.232 153.898 269.232C154.309 269.232 154.637 269.15 154.883 268.986C155.133 268.818 155.258 268.596 155.258 268.318ZM160.385 270.117C159.525 270.117 158.826 269.836 158.287 269.273C157.748 268.707 157.479 267.951 157.479 267.006V266.807C157.479 266.178 157.598 265.617 157.836 265.125C158.078 264.629 158.414 264.242 158.844 263.965C159.277 263.684 159.746 263.543 160.25 263.543C161.074 263.543 161.715 263.814 162.172 264.357C162.629 264.9 162.857 265.678 162.857 266.689V267.141H158.562C158.578 267.766 158.76 268.271 159.107 268.658C159.459 269.041 159.904 269.232 160.443 269.232C160.826 269.232 161.15 269.154 161.416 268.998C161.682 268.842 161.914 268.635 162.113 268.377L162.775 268.893C162.244 269.709 161.447 270.117 160.385 270.117ZM160.25 264.434C159.812 264.434 159.445 264.594 159.148 264.914C158.852 265.23 158.668 265.676 158.598 266.25H161.773V266.168C161.742 265.617 161.594 265.191 161.328 264.891C161.062 264.586 160.703 264.434 160.25 264.434Z" fill="black"/>
<rect x="140" y="152" width="60" height="20" fill="white"/>
<path d="M154.871 159.66L154.9 160.363C155.365 159.816 155.992 159.543 156.781 159.543C157.668 159.543 158.271 159.883 158.592 160.562C158.803 160.258 159.076 160.012 159.412 159.824C159.752 159.637 160.152 159.543 160.613 159.543C162.004 159.543 162.711 160.279 162.734 161.752V166H161.65V161.816C161.65 161.363 161.547 161.025 161.34 160.803C161.133 160.576 160.785 160.463 160.297 160.463C159.895 160.463 159.561 160.584 159.295 160.826C159.029 161.064 158.875 161.387 158.832 161.793V166H157.742V161.846C157.742 160.924 157.291 160.463 156.389 160.463C155.678 160.463 155.191 160.766 154.93 161.371V166H153.846V159.66H154.871ZM167.006 166.117C166.146 166.117 165.447 165.836 164.908 165.273C164.369 164.707 164.1 163.951 164.1 163.006V162.807C164.1 162.178 164.219 161.617 164.457 161.125C164.699 160.629 165.035 160.242 165.465 159.965C165.898 159.684 166.367 159.543 166.871 159.543C167.695 159.543 168.336 159.814 168.793 160.357C169.25 160.9 169.479 161.678 169.479 162.689V163.141H165.184C165.199 163.766 165.381 164.271 165.729 164.658C166.08 165.041 166.525 165.232 167.064 165.232C167.447 165.232 167.771 165.154 168.037 164.998C168.303 164.842 168.535 164.635 168.734 164.377L169.396 164.893C168.865 165.709 168.068 166.117 167.006 166.117ZM166.871 160.434C166.434 160.434 166.066 160.594 165.77 160.914C165.473 161.23 165.289 161.676 165.219 162.25H168.395V162.168C168.363 161.617 168.215 161.191 167.949 160.891C167.684 160.586 167.324 160.434 166.871 160.434ZM173.803 160.633C173.639 160.605 173.461 160.592 173.27 160.592C172.559 160.592 172.076 160.895 171.822 161.5V166H170.738V159.66H171.793L171.811 160.393C172.166 159.826 172.67 159.543 173.322 159.543C173.533 159.543 173.693 159.57 173.803 159.625V160.633ZM174.43 162.777C174.43 161.789 174.658 161.004 175.115 160.422C175.572 159.836 176.178 159.543 176.932 159.543C177.705 159.543 178.309 159.816 178.742 160.363L178.795 159.66H179.785V165.848C179.785 166.668 179.541 167.314 179.053 167.787C178.568 168.26 177.916 168.496 177.096 168.496C176.639 168.496 176.191 168.398 175.754 168.203C175.316 168.008 174.982 167.74 174.752 167.4L175.314 166.75C175.779 167.324 176.348 167.611 177.02 167.611C177.547 167.611 177.957 167.463 178.25 167.166C178.547 166.869 178.695 166.451 178.695 165.912V165.367C178.262 165.867 177.67 166.117 176.92 166.117C176.178 166.117 175.576 165.818 175.115 165.221C174.658 164.623 174.43 163.809 174.43 162.777ZM175.52 162.9C175.52 163.615 175.666 164.178 175.959 164.588C176.252 164.994 176.662 165.197 177.189 165.197C177.873 165.197 178.375 164.887 178.695 164.266V161.371C178.363 160.766 177.865 160.463 177.201 160.463C176.674 160.463 176.262 160.668 175.965 161.078C175.668 161.488 175.52 162.096 175.52 162.9ZM184.057 166.117C183.197 166.117 182.498 165.836 181.959 165.273C181.42 164.707 181.15 163.951 181.15 163.006V162.807C181.15 162.178 181.27 161.617 181.508 161.125C181.75 160.629 182.086 160.242 182.516 159.965C182.949 159.684 183.418 159.543 183.922 159.543C184.746 159.543 185.387 159.814 185.844 160.357C186.301 160.9 186.529 161.678 186.529 162.689V163.141H182.234C182.25 163.766 182.432 164.271 182.779 164.658C183.131 165.041 183.576 165.232 184.115 165.232C184.498 165.232 184.822 165.154 185.088 164.998C185.354 164.842 185.586 164.635 185.785 164.377L186.447 164.893C185.916 165.709 185.119 166.117 184.057 166.117ZM183.922 160.434C183.484 160.434 183.117 160.594 182.82 160.914C182.523 161.23 182.34 161.676 182.27 162.25H185.445V162.168C185.414 161.617 185.266 161.191 185 160.891C184.734 160.586 184.375 160.434 183.922 160.434Z" fill="black"/>
</svg>
